# xmcd CD database file generated by Grip 2.96
# 
# Track frame offsets:
#       150
#       9392
#       18637
#       30494
#       38841
#       46465
#       58911
#       70917
#       83346
#       99777
#       106497
#       118803
#       126974
#       139092
# 
# Disc length: 2072 seconds
# 
# Revision: 0
# Processed by: cddbd v1.4PL0 Copyright (c) Steve Scherf et al.
# Submitted via: Grip 2.96
# 
DISCID=b508160e
DTITLE=Weary Boys - Weary Blues
DYEAR=1900
DGENRE=
TTITLE0=Worried Man Blues
TTITLE1=Katy Daly
TTITLE2=No Letter
TTITLE3=Busted Down
TTITLE4=Salt Creek
TTITLE5=Be With You Always
TTITLE6=Faces of Jesus
TTITLE7=Can't Keep Me Down
TTITLE8=Another Song, Another Drink
TTITLE9=Shady Grove
TTITLE10=Angel of Death
TTITLE11=Losin Lovin
TTITLE12=Pauline
TTITLE13=Weary Blues
EXTD=
EXTT0=
EXTT1=
EXTT2=
EXTT3=
EXTT4=
EXTT5=
EXTT6=
EXTT7=
EXTT8=
EXTT9=
EXTT10=
EXTT11=
EXTT12=
EXTT13=
PLAYORDER=
